<svg height="512pt" viewBox="0 0 512 512.03071" width="512pt" xmlns="http://www.w3.org/2000/svg"><path d="m62.203125 130.679688c-16.898437-11.585938-39.839844-8.417969-52.964844 7.3125-13.128906 15.734374-12.132812 38.871093 2.292969 53.421874l41.316406 41.398438zm0 0" fill="#3d324c"/><path d="m511.878906 406.101562c-9.160156 18.183594-21.785156 34.40625-37.164062 47.753907-44.046875 38.84375-111.226563 58.175781-187.9375 58.175781-86.15625 0-161.457032-29.835938-202.0625-74.328125-8.722656-9.417969-16.011719-20.066406-21.628906-31.601563-6.667969-13.765624-10.164063-28.847656-10.238282-44.140624v-172.402344c0-101.957032 80.59375-187.9375 182.550782-189.527344 14.789062-.273438 29.550781 1.269531 43.964843 4.589844 84.375 19.21875 144.238281 94.25 144.242188 180.789062v143.890625c-.230469 17.167969 4.0625 34.09375 12.445312 49.082031 11.652344 20.035157 36.457031 36.808594 75.828125 27.71875zm0 0" fill="#7d6599"/><path d="m474.714844 453.855469c-44.046875 38.84375-111.226563 58.175781-187.9375 58.175781-86.15625 0-161.457032-29.835938-202.0625-74.328125v-258.296875c-.78125-88.535156 70.359375-160.9375 158.894531-161.71875 10.769531-.015625 21.511719 1.109375 32.042969 3.351562 30.53125 6.398438 58.484375 21.695313 80.332031 43.960938 29.902344 30.566406 46.609375 71.648438 46.523437 114.40625v197.652344s0 54.996094 72.207032 76.796875zm0 0" fill="#b49aca"/><path d="m417.988281 256.976562 65.546875-65.546874c7.449219-7.449219 11.636719-17.554688 11.636719-28.089844s-4.1875-20.636719-11.636719-28.089844c-7.449218-7.449219-17.554687-11.632812-28.089844-11.632812-10.535156 0-20.640624 4.183593-28.089843 11.632812l-65.542969 65.546875zm0 0" fill="#7d6599"/><path d="m403.300781 244.722656 65.535157-65.542968c7.449218-7.453126 11.636718-17.554688 11.636718-28.089844s-4.1875-20.640625-11.636718-28.089844c-15.511719-15.507812-40.65625-15.507812-56.167969 0l-65.546875 65.542969zm0 0" fill="#b49aca"/><g fill="#2c3e50"><path d="m185.257812 194.238281c-3.648437 0-6.921874-2.246093-8.234374-5.648437-2.191407-5.753906-5.441407-11.046875-9.578126-15.609375-3.910156-4.339844-8.65625-7.851563-13.949218-10.328125-10.636719-4.921875-22.902344-4.921875-33.542969 0-5.289063 2.480468-10.03125 5.996094-13.9375 10.335937-4.144531 4.558594-7.394531 9.851563-9.589844 15.609375-1.132812 2.941406-3.753906 5.054688-6.867187 5.542969-3.117188.488281-6.257813-.722656-8.238282-3.179687-1.980468-2.453126-2.5-5.777344-1.363281-8.71875 2.980469-7.796876 7.390625-14.96875 13.011719-21.144532 5.484375-6.078125 12.132812-10.992187 19.550781-14.457031 15.367188-7.117187 33.085938-7.117187 48.457031 0 7.414063 3.460937 14.0625 8.375 19.550782 14.449219 5.613281 6.175781 10.023437 13.347656 13.003906 21.140625.84375 2.1875.785156 4.617187-.164062 6.757812-.949219 2.140625-2.710938 3.816407-4.894532 4.65625-1.023437.398438-2.113281.601563-3.214844.59375zm0 0"/><path d="m335.328125 194.238281c-3.648437 0-6.921875-2.246093-8.234375-5.648437-2.195312-5.753906-5.441406-11.046875-9.578125-15.609375-3.914063-4.339844-8.65625-7.851563-13.949219-10.328125-10.640625-4.921875-22.90625-4.921875-33.542968 0-5.292969 2.480468-10.03125 5.996094-13.941407 10.335937-4.140625 4.558594-7.394531 9.851563-9.585937 15.609375-1.753906 4.546875-6.863282 6.8125-11.414063 5.058594-4.546875-1.757812-6.8125-6.867188-5.058593-11.414062 2.980468-7.796876 7.394531-14.96875 13.011718-21.144532 5.488282-6.078125 12.136719-10.992187 19.554688-14.457031 15.367187-7.117187 33.085937-7.117187 48.453125 0 7.417969 3.460937 14.066406 8.375 19.554687 14.449219 5.609375 6.175781 10.019532 13.347656 13.003906 21.140625.839844 2.1875.78125 4.617187-.167968 6.757812-.945313 2.140625-2.707032 3.816407-4.890625 4.65625-1.027344.398438-2.117188.601563-3.214844.59375zm0 0"/><path d="m167.605469 247.203125h70.621093c14.625 0 26.480469 11.855469 26.480469 26.484375v35.308594c0 34.128906-27.664062 61.792968-61.792969 61.792968-34.125 0-61.792968-27.664062-61.792968-61.792968v-35.308594c0-14.628906 11.855468-26.484375 26.484375-26.484375zm0 0"/></g><path d="m361.8125 300.167969c0 14.625-11.859375 26.484375-26.484375 26.484375s-26.480469-11.859375-26.480469-26.484375 11.855469-26.480469 26.480469-26.480469 26.484375 11.855469 26.484375 26.480469zm0 0" fill="#ff5364"/><path d="m105.8125 300.167969c0 14.625-11.859375 26.484375-26.484375 26.484375s-26.480469-11.859375-26.480469-26.484375 11.855469-26.480469 26.480469-26.480469 26.484375 11.855469 26.484375 26.480469zm0 0" fill="#ff5364"/><path d="m261.265625 329.300781c-8.234375 23.816407-30.175781 40.191407-55.347656 41.3125-7.550781-6.65625-11.859375-16.242187-11.832031-26.308593-.035157-16.53125 11.429687-30.867188 27.566406-34.472657 16.136718-3.605469 32.609375 4.492188 39.613281 19.46875zm0 0" fill="#ff5364"/></svg>