<svg id="Layer_1" data-name="Layer 1" xmlns="http://www.w3.org/2000/svg" viewBox="0 0 127.51 127.51"><title>logo</title><path d="M112.72,55.55C112.84,69,106.23,82,96.43,91A48.8,48.8,0,0,1,64.38,103.7c.06,3,.06,5.92.06,9,0,.68,0,1.35,0,2,0,1.47,0,3,0,4.47v.73a1.4,1.4,0,0,1-.09.76c-.27.54-14.27-8.64-15.47-9.5A110.68,110.68,0,0,1,34.34,98.87C25.58,90,18.57,79.08,16,66.73a52.2,52.2,0,0,1-1.08-8.06A47.51,47.51,0,0,1,26.31,24.52,49.07,49.07,0,0,1,40.38,12.8a45.46,45.46,0,0,1,6.61-3,48.43,48.43,0,0,1,60.53,24.39,48.46,48.46,0,0,1,2.54,5.91,47,47,0,0,1,2.62,13.41C112.7,54.22,112.72,54.89,112.72,55.55Z" style="fill:#b877d2"/><path d="M77,75.52c-2.49,1.59-12.32,6.78-26.58.28a.31.31,0,0,0-.42.39c.91,2.54,4.75,11.18,14.68,10.56,9.61-.61,12.2-8.42,12.78-10.9A.3.3,0,0,0,77,75.52Z" style="fill:#fff"/><path d="M80,54.11h0c-3.52,0-6.58,5.93-6.58,2.41V50.45a6.37,6.37,0,0,1,6.36-6.37h0a6.37,6.37,0,0,1,6.37,6.37v6.07C86.14,60,83.5,54.11,80,54.11Z" style="fill:#fff"/><path d="M47.86,54.11h0c-3.52,0-6.58,5.93-6.58,2.41V50.45a6.37,6.37,0,0,1,6.37-6.37h0A6.37,6.37,0,0,1,54,50.45v6.07C54,60,51.38,54.11,47.86,54.11Z" style="fill:#fff"/><path d="M95.49,26.83c6,6.48,8.46,14,5.4,16.88S93.56,39,87.53,32.52,76,23.08,79,20.24,89.46,20.35,95.49,26.83Z" style="fill:#fff;opacity:0.1"/><circle cx="72.36" cy="17.15" r="3.02" style="fill:#fff;opacity:0.1"/></svg>